<svg width="153" height="152" viewBox="0 0 153 152" fill="none" xmlns="http://www.w3.org/2000/svg">
<path d="M1 0H153V152H1V0Z" fill="white"/>
<path d="M105.543 104.551C105.028 112.78 101.943 118.951 97.3142 123.58C91.6571 128.722 82.4 131.294 69.5428 131.294C66.4571 131.294 63.8857 130.78 62.3428 130.265C60.8 129.237 60.2857 128.208 60.2857 126.151C60.2857 124.608 60.8 122.551 61.8285 118.951L64.4 109.694C59.7714 109.694 54.6285 110.208 50 110.722L47.9428 118.437C46.9143 122.037 45.8857 125.122 44.8571 126.665C43.8286 128.208 42.2857 129.751 40.7428 130.265C38.6857 130.78 36.1143 131.294 32.5143 131.294L32 134.38C36.1143 133.865 42.2857 133.865 50.5143 133.865C54.6285 133.865 59.2571 133.865 65.4285 134.38H76.2285C83.9428 134.38 91.1428 133.351 97.8285 130.78C104.514 128.208 110.171 124.608 114.8 119.98C118.914 115.351 121.486 109.18 121.486 102.494C115.828 103.008 110.686 103.522 105.543 104.551Z" fill="black"/>
<path d="M66.9717 69.9714H79.3145C93.7145 69.9714 100.915 76.6571 100.915 90.0285C100.915 91.5714 100.915 92.5999 100.4 94.1428C105.543 93.6285 110.686 93.1142 115.829 92.5999C115.829 86.4285 113.772 80.7714 110.172 76.6571C106.057 72.5428 99.8859 69.4571 91.1431 67.9142C99.8859 65.3428 107.086 61.2285 113.257 56.0857C119.429 50.9428 122 44.2571 122 37.0571C122 30.8857 119.429 26.2571 114.8 22.6571C110.172 19.0571 102.972 17.5143 93.7145 17.5143H82.9145C80.3431 17.5143 77.2574 17.5143 72.6288 17.5143C64.9145 17.5143 58.7431 17.5143 54.6288 17L53.6003 20.0857C57.2003 20.0857 60.286 20.6 61.3146 21.6286C62.8574 22.6571 63.3717 24.2 63.3717 25.7428C63.3717 27.8 62.8574 29.8571 62.3431 32.9428L44.3431 99.7999C49.486 99.7999 54.6288 99.2856 59.2574 98.7713L66.9717 69.9714ZM77.2574 30.8857C78.286 26.7714 79.8288 23.6857 81.886 22.1429C83.9431 20.6 87.0288 20.0857 91.1431 20.0857C96.8002 20.0857 100.915 21.6286 103.486 24.2C106.057 27.2857 107.6 31.4 107.6 37.5714C107.6 42.7143 106.572 47.8571 104 51.9714C101.429 56.6 97.8288 60.2 93.7145 62.7714C89.086 65.3428 83.9431 66.8857 78.286 66.8857H67.486L77.2574 30.8857Z" fill="black"/>
<line x1="0.909419" y1="117.508" x2="152.909" y2="89.5083" stroke="black"/>
</svg>
