<svg width="1366" height="767" viewBox="0 0 1366 767" fill="none" xmlns="http://www.w3.org/2000/svg">
<path fill-rule="evenodd" clip-rule="evenodd" d="M316.264 223.575C293.729 206.884 261.286 197.569 218.936 195.628C250.019 192.523 277.41 185.536 301.111 174.668C324.811 163.8 343.072 150.02 355.894 133.33C369.104 116.251 375.709 97.62 375.709 77.4361C375.709 52.9826 365.219 34.1573 344.238 20.9601C323.257 7.37486 291.009 0.582219 247.493 0.582219C231.952 0.582219 220.101 0.776292 211.942 1.16444L162.404 1.74666C123.939 1.74666 94.4106 1.16444 73.8182 0L70.9042 11.6445C85.6685 12.0327 95.7704 13.9734 101.21 17.4668C107.038 20.9601 109.952 26.3942 109.952 33.7691C109.952 39.9795 108.398 49.2952 105.29 61.716L28.3597 350.5C24.4744 365.25 20.3948 375.924 16.1209 382.523C12.2356 389.121 6.7961 393.585 -0.197521 395.914C-7.19114 398.243 -17.6816 399.796 -31.6688 400.572L-34 412.216C-13.0192 411.052 17.0923 410.47 56.3342 410.47C77.7036 410.47 100.433 410.858 124.522 411.634L158.324 412.216C195.624 412.216 228.649 407.364 257.401 397.661C286.541 387.957 309.27 373.789 325.588 355.158C341.907 336.139 350.066 313.238 350.066 286.455C350.066 261.226 338.799 240.265 316.264 223.575ZM213.691 19.7957C219.13 14.3616 227.678 11.6445 239.334 11.6445C255.652 11.6445 267.114 16.4964 273.719 26.2002C280.713 35.904 284.21 49.8774 284.21 68.1205C284.21 89.8569 280.13 110.429 271.971 129.837C264.2 148.856 252.544 164.188 237.003 175.832C221.85 187.477 203.783 193.299 182.802 193.299H162.404L199.703 52.9826C203.977 36.2921 208.64 25.2298 213.691 19.7957ZM203.2 382.523C186.882 393.391 167.261 398.825 144.337 398.825C134.235 398.825 127.047 397.078 122.774 393.585C118.5 389.704 116.363 384.075 116.363 376.701C116.363 372.431 117.917 363.697 121.025 350.5L160.073 203.197H185.716C209.028 203.197 225.929 209.796 236.42 222.993C247.299 236.19 252.738 253.851 252.738 275.975C252.738 298.876 248.464 319.642 239.917 338.274C231.757 356.905 219.519 371.655 203.2 382.523ZM701.508 130.612C756.68 130.612 796.116 130.03 819.817 128.866C810.881 152.931 803.304 176.608 797.088 199.897C790.483 224.351 786.403 241.429 784.849 251.133H771.444C772.999 239.1 773.776 227.262 773.776 215.617C773.776 188.835 768.336 170.01 757.457 159.141C746.967 147.885 729.483 142.257 705.005 142.257H691.601C678.779 142.257 669.066 143.421 662.461 145.75C656.244 147.691 651.193 151.961 647.308 158.559C643.422 165.158 639.731 175.832 636.234 190.582L598.935 330.316H625.744C644.394 330.316 660.129 323.911 672.951 311.102C685.773 298.293 696.652 281.409 705.588 260.449H718.409C712.581 278.692 705.394 303.922 696.846 336.138C693.349 350.888 687.327 379.611 678.779 422.308H665.957C667.123 395.913 664.403 375.924 657.798 362.338C651.582 348.753 638.76 341.96 619.333 341.96H596.021L559.305 479.366C556.196 491.01 554.642 499.55 554.642 504.984C554.642 514.299 558.139 520.51 565.133 523.615C572.515 526.72 585.725 528.661 604.763 529.437L602.432 541.082C578.731 539.917 544.152 539.335 498.693 539.335C455.955 539.335 424.289 539.917 403.697 541.082L406.611 529.437C420.598 528.661 430.894 527.108 437.499 524.78C444.493 522.451 450.127 517.987 454.401 511.388C458.674 504.79 462.754 494.116 466.639 479.366L543.569 190.582C546.677 177.384 548.232 168.069 548.232 162.635C548.232 154.095 545.318 148.467 539.49 145.75C534.05 143.033 523.948 141.286 509.184 140.51L512.098 128.866C554.448 130.03 617.585 130.612 701.508 130.612ZM1321.71 353.619C1339.19 353.619 1353.96 353.037 1366 351.872L1363.09 363.517C1349.49 367.399 1337.44 373.609 1326.95 382.148C1316.46 390.299 1305.58 404.661 1294.32 425.233L1110.73 767H1080.43L1044.29 507.327L887.52 767H857.214L811.173 400.78C809.619 387.582 805.928 378.267 800.1 372.833C794.272 367.01 787.667 363.905 780.285 363.517L783.199 351.872C802.237 353.037 829.434 353.619 864.791 353.619C897.816 353.619 923.071 353.037 940.555 351.872L937.641 363.517C926.374 364.293 918.409 367.01 913.746 371.668C909.084 376.326 906.753 385.059 906.753 397.868C906.753 404.079 906.947 408.931 907.335 412.424L935.31 665.11L1041.96 489.86L1029.72 400.78C1028.17 387.971 1025.06 378.655 1020.4 372.833C1015.74 367.01 1010.49 363.905 1004.66 363.517L1007.58 351.872C1025.84 353.037 1051.09 353.619 1083.34 353.619C1123.75 353.619 1154.05 353.037 1174.26 351.872L1171.34 363.517C1153.86 364.293 1141.62 367.01 1134.63 371.668C1128.02 375.938 1124.72 384.283 1124.72 396.704C1124.72 399.421 1125.11 404.661 1125.89 412.424L1156.77 655.795L1276.83 435.131C1286.54 416.888 1291.4 402.526 1291.4 392.046C1291.4 382.342 1287.32 375.356 1279.16 371.086C1271.39 366.816 1259.15 364.293 1242.45 363.517L1245.36 351.872C1261.29 353.037 1286.74 353.619 1321.71 353.619Z" fill="#7C6AAD"/>
</svg>
