<svg width="44" height="44" viewBox="0 0 44 44" fill="none" xmlns="http://www.w3.org/2000/svg">
<path fill-rule="evenodd" clip-rule="evenodd" d="M36 15.5C36 16.3284 35.3284 17 34.5 17L9.5 17C8.67157 17 8 16.3284 8 15.5C8 14.6716 8.67157 14 9.5 14L34.5 14C35.3284 14 36 14.6716 36 15.5ZM36 29.5C36 30.3284 35.3284 31 34.5 31L9.5 31C8.67157 31 8 30.3284 8 29.5C8 28.6716 8.67157 28 9.5 28L34.5 28C35.3284 28 36 28.6716 36 29.5ZM34.5 24C35.3284 24 36 23.3284 36 22.5C36 21.6716 35.3284 21 34.5 21L18.1154 21C17.287 21 16.6154 21.6716 16.6154 22.5C16.6154 23.3284 17.287 24 18.1154 24L34.5 24Z" fill="white"/>
</svg>
