<svg width="44" height="44" viewBox="0 0 44 44" fill="none" xmlns="http://www.w3.org/2000/svg">
<path d="M41.8572 8.2351C41.7734 8.10047 41.6567 7.98951 41.5183 7.91269C41.3799 7.83587 41.2243 7.79572 41.0661 7.79604H33.4441L33.8675 5.25506C33.89 5.12013 33.8827 4.98189 33.8461 4.8501C33.8095 4.71831 33.7446 4.59619 33.6558 4.49238C33.567 4.38857 33.4566 4.3056 33.3324 4.24933C33.2082 4.19306 33.0731 4.16487 32.9369 4.16674H11.0664C10.9302 4.16487 10.7951 4.19306 10.6709 4.24933C10.5467 4.3056 10.4363 4.38857 10.3475 4.49238C10.2587 4.59619 10.1938 4.71831 10.1572 4.8501C10.1206 4.98189 10.1133 5.12013 10.1358 5.25506L10.5592 7.79604H2.93252C2.77436 7.79572 2.61873 7.83586 2.48032 7.91269C2.34191 7.98951 2.22529 8.10047 2.14146 8.2351C2.05764 8.36973 2.00938 8.52358 2.00123 8.68213C1.99309 8.84067 2.02534 8.99869 2.09493 9.14125L6.12932 17.4648C6.77898 18.7873 7.76374 19.9151 8.98478 20.735C10.2058 21.5548 11.6202 22.0379 13.086 22.1357C13.5209 23.373 14.2082 24.5056 15.104 25.4611C15.9998 26.4166 17.0843 27.174 18.2883 27.6847V32.1128H17.2413C16.0893 32.1128 14.9844 32.5721 14.1698 33.3898C13.3552 34.2076 12.8975 35.3166 12.8975 36.473C12.8975 37.6295 13.3552 38.7385 14.1698 39.5562C14.9844 40.3739 16.0893 40.8333 17.2413 40.8333H26.7806C27.9326 40.8333 29.0375 40.3739 29.8521 39.5562C30.6668 38.7385 31.1244 37.6295 31.1244 36.473C31.1244 35.3166 30.6668 34.2076 29.8521 33.3898C29.0375 32.5721 27.9326 32.1128 26.7806 32.1128H25.7336V27.6847C26.9346 27.1713 28.0158 26.4123 28.9083 25.4561C29.8009 24.4999 30.4851 23.3674 30.9173 22.131C32.3831 22.0332 33.7975 21.5501 35.0185 20.7303C36.2396 19.9105 37.2243 18.7827 37.874 17.4601L41.9084 9.13658C41.9764 8.99423 42.0074 8.83687 41.9985 8.67922C41.9895 8.52157 41.9409 8.36877 41.8572 8.2351ZM7.82311 16.6427L4.44018 9.6644H10.8896L12.6393 20.2066C11.6103 20.0447 10.6354 19.6362 9.79702 19.0159C8.95867 18.3955 8.28159 17.5815 7.82311 16.6427ZM29.2608 36.4754C29.2595 37.1353 28.9978 37.7678 28.533 38.2344C28.0681 38.701 27.438 38.9637 26.7806 38.965H17.2413C16.5829 38.965 15.9515 38.7024 15.4859 38.2351C15.0204 37.7678 14.7588 37.1339 14.7588 36.473C14.7588 35.8121 15.0204 35.1783 15.4859 34.711C15.9515 34.2437 16.5829 33.9811 17.2413 33.9811H26.7806C27.4388 33.9823 28.0696 34.2457 28.5346 34.7133C28.9996 35.1809 29.2608 35.8147 29.2608 36.4754ZM23.8723 32.1128H20.1496V28.2686C21.3779 28.5203 22.6441 28.5203 23.8723 28.2686V32.1128ZM22.011 26.5871C20.2141 26.592 18.4742 25.9544 17.1031 24.7887C15.732 23.6229 14.8193 22.0052 14.5285 20.2253L12.1739 6.03511H31.848L29.4934 20.2253C29.2026 22.0052 28.2899 23.6229 26.9188 24.7887C25.5477 25.9544 23.8078 26.592 22.011 26.5871ZM36.1988 16.6427C35.7397 17.5806 35.0624 18.3937 34.2241 19.0132C33.3858 19.6327 32.4112 20.0405 31.3827 20.202L33.1323 9.6644H39.5817L36.1988 16.6427Z" fill="white"/>
</svg>
