<svg width="44" height="44" viewBox="0 0 44 44" fill="none" xmlns="http://www.w3.org/2000/svg">
<path d="M40 11.3808C40 10.2903 39.5611 9.24452 38.7797 8.47344C37.9983 7.70235 36.9385 7.26916 35.8335 7.26916H31.7317V5.65192C31.7317 5.40959 31.6342 5.17719 31.4605 5.00584C31.2869 4.83448 31.0514 4.73822 30.8058 4.73822C30.5603 4.73822 30.3248 4.83448 30.1511 5.00584C29.9775 5.17719 29.8799 5.40959 29.8799 5.65192V7.26916H13.9174V5.65192C13.9174 5.40959 13.8198 5.17719 13.6462 5.00584C13.4725 4.83448 13.237 4.73822 12.9915 4.73822C12.7459 4.73822 12.5104 4.83448 12.3367 5.00584C12.1631 5.17719 12.0656 5.40959 12.0656 5.65192V7.26916H7.9638C6.85876 7.26916 5.79898 7.70235 5.0176 8.47344C4.23622 9.24452 3.79724 10.2903 3.79724 11.3808V34.1502C3.79724 35.2406 4.23622 36.2865 5.0176 37.0575C5.79898 37.8286 6.85876 38.2618 7.9638 38.2618H35.8335C36.9385 38.2618 37.9983 37.8286 38.7797 37.0575C39.5611 36.2865 40 35.2406 40 34.1502V11.3808ZM38.1482 34.1547C38.1482 34.4547 38.0884 34.7517 37.972 35.0289C37.8557 35.306 37.6852 35.5578 37.4703 35.7699C37.2553 35.9821 37.0001 36.1503 36.7193 36.2651C36.4385 36.3799 36.1375 36.439 35.8335 36.439H7.9638C7.65983 36.439 7.35882 36.3799 7.07799 36.2651C6.79715 36.1503 6.54197 35.9821 6.32702 35.7699C6.11208 35.5578 5.94157 35.306 5.82525 35.0289C5.70892 34.7517 5.64905 34.4547 5.64905 34.1547V18.2792H38.1482V34.1547ZM38.1482 16.4564H5.64905V11.3808C5.64905 10.775 5.89292 10.194 6.32702 9.7656C6.76112 9.33722 7.34989 9.09656 7.9638 9.09656H12.0702V11.6275C12.0702 11.8698 12.1677 12.1022 12.3414 12.2736C12.515 12.4449 12.7505 12.5412 12.9961 12.5412C13.2417 12.5412 13.4772 12.4449 13.6508 12.2736C13.8244 12.1022 13.922 11.8698 13.922 11.6275V9.09656H29.8799V11.6275C29.8799 11.8698 29.9775 12.1022 30.1511 12.2736C30.3248 12.4449 30.5603 12.5412 30.8058 12.5412C31.0514 12.5412 31.2869 12.4449 31.4605 12.2736C31.6342 12.1022 31.7317 11.8698 31.7317 11.6275V9.09656H35.8335C36.4474 9.09656 37.0362 9.33722 37.4703 9.7656C37.9044 10.194 38.1482 10.775 38.1482 11.3808V16.4564Z" fill="white"/>
<path d="M14.9589 21.0432H14.9543C13.9239 21.0432 13.0886 21.8674 13.0886 22.8843V22.8888C13.0886 23.9056 13.9239 24.7299 14.9543 24.7299H14.9589C15.9893 24.7299 16.8246 23.9056 16.8246 22.8888V22.8843C16.8246 21.8674 15.9893 21.0432 14.9589 21.0432Z" fill="white"/>
<path d="M19.5885 21.0432H19.5838C18.5534 21.0432 17.7181 21.8674 17.7181 22.8843V22.8888C17.7181 23.9056 18.5534 24.7299 19.5838 24.7299H19.5885C20.6189 24.7299 21.4542 23.9056 21.4542 22.8888V22.8843C21.4542 21.8674 20.6189 21.0432 19.5885 21.0432Z" fill="white"/>
<path d="M24.218 21.0432H24.2134C23.183 21.0432 22.3477 21.8674 22.3477 22.8843V22.8888C22.3477 23.9056 23.183 24.7299 24.2134 24.7299H24.218C25.2484 24.7299 26.0837 23.9056 26.0837 22.8888V22.8843C26.0837 21.8674 25.2484 21.0432 24.218 21.0432Z" fill="white"/>
<path d="M28.8475 21.0432H28.8429C27.8125 21.0432 26.9772 21.8674 26.9772 22.8843V22.8888C26.9772 23.9056 27.8125 24.7299 28.8429 24.7299H28.8475C29.8779 24.7299 30.7132 23.9056 30.7132 22.8888V22.8843C30.7132 21.8674 29.8779 21.0432 28.8475 21.0432Z" fill="white"/>
<path d="M33.477 21.0432H33.4724C32.442 21.0432 31.6067 21.8674 31.6067 22.8843V22.8888C31.6067 23.9056 32.442 24.7299 33.4724 24.7299H33.477C34.5074 24.7299 35.3427 23.9056 35.3427 22.8888V22.8843C35.3427 21.8674 34.5074 21.0432 33.477 21.0432Z" fill="white"/>
<path d="M10.3294 25.6116H10.3248C9.29441 25.6116 8.45911 26.4359 8.45911 27.4527V27.4573C8.45911 28.4741 9.29441 29.2984 10.3248 29.2984H10.3294C11.3598 29.2984 12.1951 28.4741 12.1951 27.4573V27.4527C12.1951 26.4359 11.3598 25.6116 10.3294 25.6116Z" fill="white"/>
<path d="M14.9589 25.6116H14.9543C13.9239 25.6116 13.0886 26.4359 13.0886 27.4527V27.4573C13.0886 28.4741 13.9239 29.2984 14.9543 29.2984H14.9589C15.9893 29.2984 16.8246 28.4741 16.8246 27.4573V27.4527C16.8246 26.4359 15.9893 25.6116 14.9589 25.6116Z" fill="white"/>
<path d="M19.5885 25.6116H19.5838C18.5534 25.6116 17.7181 26.4359 17.7181 27.4527V27.4573C17.7181 28.4741 18.5534 29.2984 19.5838 29.2984H19.5885C20.6189 29.2984 21.4542 28.4741 21.4542 27.4573V27.4527C21.4542 26.4359 20.6189 25.6116 19.5885 25.6116Z" fill="white"/>
<path d="M24.218 25.6116H24.2134C23.183 25.6116 22.3477 26.4359 22.3477 27.4527V27.4573C22.3477 28.4741 23.183 29.2984 24.2134 29.2984H24.218C25.2484 29.2984 26.0837 28.4741 26.0837 27.4573V27.4527C26.0837 26.4359 25.2484 25.6116 24.218 25.6116Z" fill="white"/>
<path d="M28.8475 25.6116H28.8429C27.8125 25.6116 26.9772 26.4359 26.9772 27.4527V27.4573C26.9772 28.4741 27.8125 29.2984 28.8429 29.2984H28.8475C29.8779 29.2984 30.7132 28.4741 30.7132 27.4573V27.4527C30.7132 26.4359 29.8779 25.6116 28.8475 25.6116Z" fill="white"/>
<path d="M33.477 25.6116H33.4724C32.442 25.6116 31.6067 26.4359 31.6067 27.4527V27.4573C31.6067 28.4741 32.442 29.2984 33.4724 29.2984H33.477C34.5074 29.2984 35.3427 28.4741 35.3427 27.4573V27.4527C35.3427 26.4359 34.5074 25.6116 33.477 25.6116Z" fill="white"/>
<path d="M10.3294 30.1801H10.3248C9.29441 30.1801 8.45911 31.0044 8.45911 32.0212V32.0258C8.45911 33.0426 9.29441 33.8669 10.3248 33.8669H10.3294C11.3598 33.8669 12.1951 33.0426 12.1951 32.0258V32.0212C12.1951 31.0044 11.3598 30.1801 10.3294 30.1801Z" fill="white"/>
<path d="M14.9589 30.1801H14.9543C13.9239 30.1801 13.0886 31.0044 13.0886 32.0212V32.0258C13.0886 33.0426 13.9239 33.8669 14.9543 33.8669H14.9589C15.9893 33.8669 16.8246 33.0426 16.8246 32.0258V32.0212C16.8246 31.0044 15.9893 30.1801 14.9589 30.1801Z" fill="white"/>
<path d="M19.5885 30.1801H19.5838C18.5534 30.1801 17.7181 31.0044 17.7181 32.0212V32.0258C17.7181 33.0426 18.5534 33.8669 19.5838 33.8669H19.5885C20.6189 33.8669 21.4542 33.0426 21.4542 32.0258V32.0212C21.4542 31.0044 20.6189 30.1801 19.5885 30.1801Z" fill="white"/>
<path d="M24.218 30.1801H24.2134C23.183 30.1801 22.3477 31.0044 22.3477 32.0212V32.0258C22.3477 33.0426 23.183 33.8669 24.2134 33.8669H24.218C25.2484 33.8669 26.0837 33.0426 26.0837 32.0258V32.0212C26.0837 31.0044 25.2484 30.1801 24.218 30.1801Z" fill="white"/>
<path d="M28.8475 30.1801H28.8429C27.8125 30.1801 26.9772 31.0044 26.9772 32.0212V32.0258C26.9772 33.0426 27.8125 33.8669 28.8429 33.8669H28.8475C29.8779 33.8669 30.7132 33.0426 30.7132 32.0258V32.0212C30.7132 31.0044 29.8779 30.1801 28.8475 30.1801Z" fill="white"/>
</svg>
